mtllib ./Bullet.mtl
g 1
v -0.5 0.4999997 0.5000002
v 0.5 0.4999997 0.5000002
v -0.5 0.5000002 -0.4999997
v 0.5 0.5000002 -0.4999997
v -0.5 -0.4999997 -0.5000002
v 0.5 -0.4999997 -0.5000002
v -0.5 -0.5000002 0.4999997
v 0.5 -0.5000002 0.4999997
v -0.5 0.5000002 -0.4999997
v 0.5 0.5000002 -0.4999997
v -0.5 -0.4999997 -0.5000002
v 0.5 -0.4999997 -0.5000002
v -0.5 -0.5000002 0.4999997
v -0.5 0.4999997 0.5000002
v 0.5 0.4999997 0.5000002
v 0.5 -0.5000002 0.4999997
v 0.5 0.4999997 0.5000002
v 0.5 0.5000002 -0.4999997
v 0.5 -0.4999997 -0.5000002
v 0.5 -0.5000002 0.4999997
v -0.5 -0.5000002 0.4999997
v -0.5 -0.4999997 -0.5000002
v -0.5 0.5000002 -0.4999997
v -0.5 0.4999997 0.5000002

vn 0 0.9999999 5.364418E-07
vn 0 0.9999999 5.364418E-07
vn 0 0.9999999 5.364418E-07
vn 0 0.9999999 5.364418E-07
vn 0 5.364418E-07 -0.9999999
vn 0 5.364418E-07 -0.9999999
vn 0 -0.9999999 -5.364418E-07
vn 0 -0.9999999 -5.364418E-07
vn 0 5.364418E-07 -0.9999999
vn 0 5.364418E-07 -0.9999999
vn 0 -0.9999999 -5.364418E-07
vn 0 -0.9999999 -5.364418E-07
vn 0 -5.364418E-07 0.9999999
vn 0 -5.364418E-07 0.9999999
vn 0 -5.364418E-07 0.9999999
vn 0 -5.364418E-07 0.9999999
vn 1 0 0
vn 1 0 0
vn 1 0 0
vn 1 0 0
vn -1 0 0
vn -1 0 0
vn -1 0 0
vn -1 0 0

vt 0 0
vt 1 0
vt 0 1
vt 1 1
vt 0 1
vt 1 1
vt 0 1
vt 1 1
vt 0 0
vt 1 0
vt 0 0
vt 1 0
vt 0 0
vt 0 1
vt 1 1
vt 1 0
vt 0 0
vt 0 1
vt 1 1
vt 1 0
vt 0 0
vt 0 1
vt 1 1
vt 1 0

usemtl 1
usemap 1
f 3/3/3 1/1/1 4/4/4
f 4/4/4 1/1/1 2/2/2
f 5/5/5 9/9/9 6/6/6
f 6/6/6 9/9/9 10/10/10
f 7/7/7 11/11/11 8/8/8
f 8/8/8 11/11/11 12/12/12
f 14/14/14 13/13/13 15/15/15
f 15/15/15 13/13/13 16/16/16
f 18/18/18 17/17/17 19/19/19
f 19/19/19 17/17/17 20/20/20
f 22/22/22 21/21/21 23/23/23
f 23/23/23 21/21/21 24/24/24
g 1
v -0.5 1.5 0.5000008
v 0.5 1.5 0.5000008
v -0.5 1.5 -0.4999992
v 0.5 1.5 -0.4999992
v -0.5 0.5000002 -0.4999997
v 0.5 0.5000002 -0.4999997
v -0.5 0.4999997 0.5000002
v 0.5 0.4999997 0.5000002
v -0.5 1.5 -0.4999992
v 0.5 1.5 -0.4999992
v -0.5 0.5000002 -0.4999997
v 0.5 0.5000002 -0.4999997
v -0.5 0.4999997 0.5000002
v -0.5 1.5 0.5000008
v 0.5 1.5 0.5000008
v 0.5 0.4999997 0.5000002
v 0.5 1.5 0.5000008
v 0.5 1.5 -0.4999992
v 0.5 0.5000002 -0.4999997
v 0.5 0.4999997 0.5000002
v -0.5 0.4999997 0.5000002
v -0.5 0.5000002 -0.4999997
v -0.5 1.5 -0.4999992
v -0.5 1.5 0.5000008

vn 0 0.9999999 5.364418E-07
vn 0 0.9999999 5.364418E-07
vn 0 0.9999999 5.364418E-07
vn 0 0.9999999 5.364418E-07
vn 0 5.364418E-07 -0.9999999
vn 0 5.364418E-07 -0.9999999
vn 0 -0.9999999 -5.364418E-07
vn 0 -0.9999999 -5.364418E-07
vn 0 5.364418E-07 -0.9999999
vn 0 5.364418E-07 -0.9999999
vn 0 -0.9999999 -5.364418E-07
vn 0 -0.9999999 -5.364418E-07
vn 0 -5.364418E-07 0.9999999
vn 0 -5.364418E-07 0.9999999
vn 0 -5.364418E-07 0.9999999
vn 0 -5.364418E-07 0.9999999
vn 1 0 0
vn 1 0 0
vn 1 0 0
vn 1 0 0
vn -1 0 0
vn -1 0 0
vn -1 0 0
vn -1 0 0

vt 0 0
vt 1 0
vt 0 1
vt 1 1
vt 0 1
vt 1 1
vt 0 1
vt 1 1
vt 0 0
vt 1 0
vt 0 0
vt 1 0
vt 0 0
vt 0 1
vt 1 1
vt 1 0
vt 0 0
vt 0 1
vt 1 1
vt 1 0
vt 0 0
vt 0 1
vt 1 1
vt 1 0

usemtl 1
usemap 1
f 27/27/27 25/25/25 28/28/28
f 28/28/28 25/25/25 26/26/26
f 29/29/29 33/33/33 30/30/30
f 30/30/30 33/33/33 34/34/34
f 31/31/31 35/35/35 32/32/32
f 32/32/32 35/35/35 36/36/36
f 38/38/38 37/37/37 39/39/39
f 39/39/39 37/37/37 40/40/40
f 42/42/42 41/41/41 43/43/43
f 43/43/43 41/41/41 44/44/44
f 46/46/46 45/45/45 47/47/47
f 47/47/47 45/45/45 48/48/48
g 1
v -0.5 -0.5000002 0.4999997
v 0.5 -0.5000002 0.4999997
v -0.5 -0.4999997 -0.5000002
v 0.5 -0.4999997 -0.5000002
v -0.5 -1.5 -0.5000008
v 0.5 -1.5 -0.5000008
v -0.5 -1.5 0.4999992
v 0.5 -1.5 0.4999992
v -0.5 -0.4999997 -0.5000002
v 0.5 -0.4999997 -0.5000002
v -0.5 -1.5 -0.5000008
v 0.5 -1.5 -0.5000008
v -0.5 -1.5 0.4999992
v -0.5 -0.5000002 0.4999997
v 0.5 -0.5000002 0.4999997
v 0.5 -1.5 0.4999992
v 0.5 -0.5000002 0.4999997
v 0.5 -0.4999997 -0.5000002
v 0.5 -1.5 -0.5000008
v 0.5 -1.5 0.4999992
v -0.5 -1.5 0.4999992
v -0.5 -1.5 -0.5000008
v -0.5 -0.4999997 -0.5000002
v -0.5 -0.5000002 0.4999997

vn 0 0.9999999 5.364418E-07
vn 0 0.9999999 5.364418E-07
vn 0 0.9999999 5.364418E-07
vn 0 0.9999999 5.364418E-07
vn 0 5.364418E-07 -0.9999999
vn 0 5.364418E-07 -0.9999999
vn 0 -0.9999999 -5.364418E-07
vn 0 -0.9999999 -5.364418E-07
vn 0 5.364418E-07 -0.9999999
vn 0 5.364418E-07 -0.9999999
vn 0 -0.9999999 -5.364418E-07
vn 0 -0.9999999 -5.364418E-07
vn 0 -5.364418E-07 0.9999999
vn 0 -5.364418E-07 0.9999999
vn 0 -5.364418E-07 0.9999999
vn 0 -5.364418E-07 0.9999999
vn 1 0 0
vn 1 0 0
vn 1 0 0
vn 1 0 0
vn -1 0 0
vn -1 0 0
vn -1 0 0
vn -1 0 0

vt 0 0
vt 1 0
vt 0 1
vt 1 1
vt 0 1
vt 1 1
vt 0 1
vt 1 1
vt 0 0
vt 1 0
vt 0 0
vt 1 0
vt 0 0
vt 0 1
vt 1 1
vt 1 0
vt 0 0
vt 0 1
vt 1 1
vt 1 0
vt 0 0
vt 0 1
vt 1 1
vt 1 0

usemtl 1
usemap 1
f 51/51/51 49/49/49 52/52/52
f 52/52/52 49/49/49 50/50/50
f 53/53/53 57/57/57 54/54/54
f 54/54/54 57/57/57 58/58/58
f 55/55/55 59/59/59 56/56/56
f 56/56/56 59/59/59 60/60/60
f 62/62/62 61/61/61 63/63/63
f 63/63/63 61/61/61 64/64/64
f 66/66/66 65/65/65 67/67/67
f 67/67/67 65/65/65 68/68/68
f 70/70/70 69/69/69 71/71/71
f 71/71/71 69/69/69 72/72/72
g 1
v -0.5 0.4999997 0.5000002
v 0.5 0.4999997 0.5000002
v -0.5 0.5000002 -0.4999997
v 0.5 0.5000002 -0.4999997
v -0.5 -0.4999997 -0.5000002
v 0.5 -0.4999997 -0.5000002
v -0.5 -0.5000002 0.4999997
v 0.5 -0.5000002 0.4999997
v -0.5 0.5000002 -0.4999997
v 0.5 0.5000002 -0.4999997
v -0.5 -0.4999997 -0.5000002
v 0.5 -0.4999997 -0.5000002
v -0.5 -0.5000002 0.4999997
v -0.5 0.4999997 0.5000002
v 0.5 0.4999997 0.5000002
v 0.5 -0.5000002 0.4999997
v 0.5 0.4999997 0.5000002
v 0.5 0.5000002 -0.4999997
v 0.5 -0.4999997 -0.5000002
v 0.5 -0.5000002 0.4999997
v -0.5 -0.5000002 0.4999997
v -0.5 -0.4999997 -0.5000002
v -0.5 0.5000002 -0.4999997
v -0.5 0.4999997 0.5000002

vn 0 0.9999999 5.364418E-07
vn 0 0.9999999 5.364418E-07
vn 0 0.9999999 5.364418E-07
vn 0 0.9999999 5.364418E-07
vn 0 5.364418E-07 -0.9999999
vn 0 5.364418E-07 -0.9999999
vn 0 -0.9999999 -5.364418E-07
vn 0 -0.9999999 -5.364418E-07
vn 0 5.364418E-07 -0.9999999
vn 0 5.364418E-07 -0.9999999
vn 0 -0.9999999 -5.364418E-07
vn 0 -0.9999999 -5.364418E-07
vn 0 -5.364418E-07 0.9999999
vn 0 -5.364418E-07 0.9999999
vn 0 -5.364418E-07 0.9999999
vn 0 -5.364418E-07 0.9999999
vn 1 0 0
vn 1 0 0
vn 1 0 0
vn 1 0 0
vn -1 0 0
vn -1 0 0
vn -1 0 0
vn -1 0 0

vt 0 0
vt 1 0
vt 0 1
vt 1 1
vt 0 1
vt 1 1
vt 0 1
vt 1 1
vt 0 0
vt 1 0
vt 0 0
vt 1 0
vt 0 0
vt 0 1
vt 1 1
vt 1 0
vt 0 0
vt 0 1
vt 1 1
vt 1 0
vt 0 0
vt 0 1
vt 1 1
vt 1 0

usemtl 1
usemap 1
f 75/75/75 73/73/73 76/76/76
f 76/76/76 73/73/73 74/74/74
f 77/77/77 81/81/81 78/78/78
f 78/78/78 81/81/81 82/82/82
f 79/79/79 83/83/83 80/80/80
f 80/80/80 83/83/83 84/84/84
f 86/86/86 85/85/85 87/87/87
f 87/87/87 85/85/85 88/88/88
f 90/90/90 89/89/89 91/91/91
f 91/91/91 89/89/89 92/92/92
f 94/94/94 93/93/93 95/95/95
f 95/95/95 93/93/93 96/96/96
g 1
v -0.5 1.5 0.5000008
v 0.5 1.5 0.5000008
v -0.5 1.5 -0.4999992
v 0.5 1.5 -0.4999992
v -0.5 0.5000002 -0.4999997
v 0.5 0.5000002 -0.4999997
v -0.5 0.4999997 0.5000002
v 0.5 0.4999997 0.5000002
v -0.5 1.5 -0.4999992
v 0.5 1.5 -0.4999992
v -0.5 0.5000002 -0.4999997
v 0.5 0.5000002 -0.4999997
v -0.5 0.4999997 0.5000002
v -0.5 1.5 0.5000008
v 0.5 1.5 0.5000008
v 0.5 0.4999997 0.5000002
v 0.5 1.5 0.5000008
v 0.5 1.5 -0.4999992
v 0.5 0.5000002 -0.4999997
v 0.5 0.4999997 0.5000002
v -0.5 0.4999997 0.5000002
v -0.5 0.5000002 -0.4999997
v -0.5 1.5 -0.4999992
v -0.5 1.5 0.5000008

vn 0 0.9999999 5.364418E-07
vn 0 0.9999999 5.364418E-07
vn 0 0.9999999 5.364418E-07
vn 0 0.9999999 5.364418E-07
vn 0 5.364418E-07 -0.9999999
vn 0 5.364418E-07 -0.9999999
vn 0 -0.9999999 -5.364418E-07
vn 0 -0.9999999 -5.364418E-07
vn 0 5.364418E-07 -0.9999999
vn 0 5.364418E-07 -0.9999999
vn 0 -0.9999999 -5.364418E-07
vn 0 -0.9999999 -5.364418E-07
vn 0 -5.364418E-07 0.9999999
vn 0 -5.364418E-07 0.9999999
vn 0 -5.364418E-07 0.9999999
vn 0 -5.364418E-07 0.9999999
vn 1 0 0
vn 1 0 0
vn 1 0 0
vn 1 0 0
vn -1 0 0
vn -1 0 0
vn -1 0 0
vn -1 0 0

vt 0 0
vt 1 0
vt 0 1
vt 1 1
vt 0 1
vt 1 1
vt 0 1
vt 1 1
vt 0 0
vt 1 0
vt 0 0
vt 1 0
vt 0 0
vt 0 1
vt 1 1
vt 1 0
vt 0 0
vt 0 1
vt 1 1
vt 1 0
vt 0 0
vt 0 1
vt 1 1
vt 1 0

usemtl 1
usemap 1
f 99/99/99 97/97/97 100/100/100
f 100/100/100 97/97/97 98/98/98
f 101/101/101 105/105/105 102/102/102
f 102/102/102 105/105/105 106/106/106
f 103/103/103 107/107/107 104/104/104
f 104/104/104 107/107/107 108/108/108
f 110/110/110 109/109/109 111/111/111
f 111/111/111 109/109/109 112/112/112
f 114/114/114 113/113/113 115/115/115
f 115/115/115 113/113/113 116/116/116
f 118/118/118 117/117/117 119/119/119
f 119/119/119 117/117/117 120/120/120
g 1
v -0.5 -0.5000002 0.4999997
v 0.5 -0.5000002 0.4999997
v -0.5 -0.4999997 -0.5000002
v 0.5 -0.4999997 -0.5000002
v -0.5 -1.5 -0.5000008
v 0.5 -1.5 -0.5000008
v -0.5 -1.5 0.4999992
v 0.5 -1.5 0.4999992
v -0.5 -0.4999997 -0.5000002
v 0.5 -0.4999997 -0.5000002
v -0.5 -1.5 -0.5000008
v 0.5 -1.5 -0.5000008
v -0.5 -1.5 0.4999992
v -0.5 -0.5000002 0.4999997
v 0.5 -0.5000002 0.4999997
v 0.5 -1.5 0.4999992
v 0.5 -0.5000002 0.4999997
v 0.5 -0.4999997 -0.5000002
v 0.5 -1.5 -0.5000008
v 0.5 -1.5 0.4999992
v -0.5 -1.5 0.4999992
v -0.5 -1.5 -0.5000008
v -0.5 -0.4999997 -0.5000002
v -0.5 -0.5000002 0.4999997

vn 0 0.9999999 5.364418E-07
vn 0 0.9999999 5.364418E-07
vn 0 0.9999999 5.364418E-07
vn 0 0.9999999 5.364418E-07
vn 0 5.364418E-07 -0.9999999
vn 0 5.364418E-07 -0.9999999
vn 0 -0.9999999 -5.364418E-07
vn 0 -0.9999999 -5.364418E-07
vn 0 5.364418E-07 -0.9999999
vn 0 5.364418E-07 -0.9999999
vn 0 -0.9999999 -5.364418E-07
vn 0 -0.9999999 -5.364418E-07
vn 0 -5.364418E-07 0.9999999
vn 0 -5.364418E-07 0.9999999
vn 0 -5.364418E-07 0.9999999
vn 0 -5.364418E-07 0.9999999
vn 1 0 0
vn 1 0 0
vn 1 0 0
vn 1 0 0
vn -1 0 0
vn -1 0 0
vn -1 0 0
vn -1 0 0

vt 0 0
vt 1 0
vt 0 1
vt 1 1
vt 0 1
vt 1 1
vt 0 1
vt 1 1
vt 0 0
vt 1 0
vt 0 0
vt 1 0
vt 0 0
vt 0 1
vt 1 1
vt 1 0
vt 0 0
vt 0 1
vt 1 1
vt 1 0
vt 0 0
vt 0 1
vt 1 1
vt 1 0

usemtl 1
usemap 1
f 123/123/123 121/121/121 124/124/124
f 124/124/124 121/121/121 122/122/122
f 125/125/125 129/129/129 126/126/126
f 126/126/126 129/129/129 130/130/130
f 127/127/127 131/131/131 128/128/128
f 128/128/128 131/131/131 132/132/132
f 134/134/134 133/133/133 135/135/135
f 135/135/135 133/133/133 136/136/136
f 138/138/138 137/137/137 139/139/139
f 139/139/139 137/137/137 140/140/140
f 142/142/142 141/141/141 143/143/143
f 143/143/143 141/141/141 144/144/144
